<svg xmlns="http://www.w3.org/2000/svg" viewBox="0 0 913.66 167.63"><defs><style>.cls-1{fill:#e2007a;}.cls-2{fill:#004a91;}.cls-3{fill:#fff;}.cls-4{fill:#fcee21;}</style></defs><title>Asset 1</title><g id="Layer_2" data-name="Layer 2"><g id="Layer_1-2" data-name="Layer 1"><g id="Layer_2-2" data-name="Layer 2"><g id="Layer_1-2-2" data-name="Layer 1-2"><path class="cls-1" d="M8.25,130.48q10.1,30.07,39,30.05,19.51,0,27.19-11.12t7.69-30.63V4.52H89V118.78q0,48.64-41.76,48.64-19.73,0-30.4-9.87T0,130.48Z"/><path class="cls-1" d="M212.92,36.86Q208.1,21.5,199,15.3T176.63,9.1a88.23,88.23,0,0,0-15.49,1.15,44,44,0,0,0-12.62,4.47A21.16,21.16,0,0,0,139,25.39q-3.21,7.35-3.21,18.81,0,10.11,9.3,17.9a85.64,85.64,0,0,0,22.59,13.31q13.3,5.5,26.73,11.24a74.54,74.54,0,0,1,22.71,14.69q9.3,8.95,9.3,20.65,0,22.94-11.36,34.19t-38.88,11.24q-22.49,0-35.34-9.07t-17.66-28.11l6.42-2.74q4.58,18.58,15.71,25.8t30.86,7.23q22,0,32.69-8.49T219.56,122q0-10.1-9.29-17.9a85.58,85.58,0,0,0-22.71-13.31q-13.42-5.5-26.73-11.24a74.94,74.94,0,0,1-22.6-14.69q-9.28-9-9.29-20.65,0-22.25,11.24-32.12t36.48-9.87q17.66,0,28.45,9.18t15.6,28"/><path class="cls-2" d="M447.23,86.88l-3.44-6,12.85-7.34q15.84-8.71,15.83-27.77,0-35.56-54.15-35.56H397.21V164h-6.88V3.37h28q30.29,0,45.66,11.13t15.38,31.31q0,23-19.28,33.73Z"/><path class="cls-2" d="M695.94,164H659.23V3.37h28q30.29,0,45.66,11.13t15.38,31.31q0,23-19.28,33.73,28,10.56,28,39.7,0,20.64-15.14,32.69T695.94,164Zm0-6.88a104.67,104.67,0,0,0,19.74-1.73,66.79,66.79,0,0,0,17.09-5.73,29.66,29.66,0,0,0,12.73-11.82q4.58-7.79,4.58-18.58,0-24.55-23.63-33.27l-13.77-5.05,12.85-7.34q15.84-8.71,15.83-27.77,0-35.56-54.15-35.56h-21.1V157.09Z"/><path class="cls-3" d="M622.94,33.75a18.7,18.7,0,0,1-23,18.18l-3.49-.86V89.15a3.87,3.87,0,1,1-7.74,0h0V50.88l-3.52.89a12.13,12.13,0,0,1-10.77-2.67l-2.83-2.44L570,50a13.68,13.68,0,0,1-12.32,7.84,13.41,13.41,0,0,1-7.84-2.54l-4.48-3.16V64.25a3.87,3.87,0,1,1-7.74,0h0v-17h-2.8a20.07,20.07,0,1,1,15-33.17l2.57,3,2-3.36a16.33,16.33,0,0,1,30.33,6.78l.63,7L589.74,22a18.69,18.69,0,0,1,33.2,11.79Z"/><path class="cls-2" d="M604.26,9.41a24,24,0,0,0-15.08,5.24A22,22,0,0,0,551.6,7.86a25.59,25.59,0,0,0-42.32,19.4,25.31,25.31,0,0,0,10.8,20.88V61.51a20,20,0,0,0-2.8-.2A21.39,21.39,0,0,0,495.9,82.66v23.52a21.39,21.39,0,0,0,21.38,21.38,20,20,0,0,0,2.8-.2V135a32.67,32.67,0,0,0,32.64,32.64h32.44A32.67,32.67,0,0,0,617.77,135V54a24.31,24.31,0,0,0-13.5-44.53ZM520.08,121.66a15.68,15.68,0,0,1-18.54-15.48V82.66a15.68,15.68,0,0,1,18.54-15.45Zm92,13.33a27,27,0,0,1-27,27H552.72a27,27,0,0,1-27-27V51.14c.49.2,1,.36,1.51.53s.92.3,1.42.43a14.61,14.61,0,0,0,1.65.33,14.86,14.86,0,0,0,1.68.26V64.25a9.52,9.52,0,0,0,19,0v-2a18.91,18.91,0,0,0,6.65,1.22,19.37,19.37,0,0,0,15.74-8.17A18,18,0,0,0,583,57.7V89.15a9,9,0,0,0,.2,1.91,9.37,9.37,0,0,0,2.64,4.81h0A9.31,9.31,0,0,0,588,97.51a7.51,7.51,0,0,0,1.48.66,9.28,9.28,0,0,0,3,.49A9.54,9.54,0,0,0,602,89.14V58a21.66,21.66,0,0,0,4.38,0,5.91,5.91,0,0,0,.72-.07,5.46,5.46,0,0,0,.72-.1,21.32,21.32,0,0,0,2.14-.43c.69-.17,1.32-.36,1.94-.56l.16-.07Zm1.42-85a18.75,18.75,0,0,1-13.64,2l-3.49-.86v38a3.87,3.87,0,1,1-7.74,0h0V50.88l-3.52.89a12.13,12.13,0,0,1-10.77-2.67l-2.83-2.44L570,50a13.68,13.68,0,0,1-12.32,7.84,13.41,13.41,0,0,1-7.84-2.54l-4.48-3.16V64.25a3.87,3.87,0,1,1-7.74,0h0v-17h-2.8a20.07,20.07,0,1,1,15-33.17l2.57,3,2-3.36a16.33,16.33,0,0,1,30.33,6.78l.63,7L589.74,22a18.69,18.69,0,1,1,23.81,28Z"/><path class="cls-4" d="M612.13,56.74V135a27,27,0,0,1-27,27H552.72a27,27,0,0,1-27-27V51.14c.49.2,1,.36,1.51.53s.92.3,1.42.43a14.61,14.61,0,0,0,1.65.33,14.86,14.86,0,0,0,1.68.26V64.25a9.52,9.52,0,0,0,19,0v-2a18.91,18.91,0,0,0,6.65,1.22,19.37,19.37,0,0,0,15.74-8.17A18,18,0,0,0,583,57.7V89.15a9,9,0,0,0,.2,1.91,9.37,9.37,0,0,0,2.64,4.81h0A9.31,9.31,0,0,0,588,97.51a7.51,7.51,0,0,0,1.48.66,9.28,9.28,0,0,0,3,.49A9.54,9.54,0,0,0,602,89.14V58a21.66,21.66,0,0,0,4.38,0,5.91,5.91,0,0,0,.72-.07,5.46,5.46,0,0,0,.72-.1,21.32,21.32,0,0,0,2.14-.43c.69-.17,1.32-.36,1.94-.56Z"/><path class="cls-2" d="M554.85,130.83A2.82,2.82,0,0,1,552,128s0,0,0-.05V85.74a2.82,2.82,0,1,1,5.64,0V128A2.82,2.82,0,0,1,554.85,130.83Z"/><path class="cls-2" d="M568.94,130.83a2.82,2.82,0,0,1-2.82-2.82h0V85.74a2.82,2.82,0,0,1,5.64,0V128a2.82,2.82,0,0,1-2.8,2.84Z"/><path class="cls-2" d="M585.85,95.87V128a2.82,2.82,0,1,1-5.63,0V85.72a2.8,2.8,0,0,1,2.8-2.8v6.22a9,9,0,0,0,.2,1.91A9.37,9.37,0,0,0,585.85,95.87Z"/><polygon class="cls-2" points="353.12 147.25 355.56 149.95 353.12 152.15 350.65 154.36 288.37 85.03 350.65 15.7 353.12 17.91 355.56 20.11 353.12 22.81 297.2 85.03 353.12 147.25"/><polygon class="cls-2" points="913.66 86.94 851.38 156.27 848.91 154.07 846.47 151.86 848.91 149.16 904.8 86.94 848.91 24.72 846.47 22.02 848.91 19.82 851.38 17.61 913.66 86.94"/><polygon class="cls-2" points="833.79 20.84 789.96 155.09 786.79 154.07 783.66 153.05 827.5 18.8 830.66 19.82 833.79 20.84"/></g></g></g></g></svg>